<svg id="Layer_4_copy_2" data-name="Layer 4 copy 2" xmlns="http://www.w3.org/2000/svg" xmlns:xlink="http://www.w3.org/1999/xlink" viewBox="0 0 576.02 576"><defs><style>.cls-1{fill:none;stroke:#b42e50;stroke-miterlimit:5;stroke-width:7px;}.cls-2{fill:url(#radial-gradient);}.cls-3{fill:#b42d51;}.cls-4{fill:url(#radial-gradient-2);}</style><radialGradient id="radial-gradient" cx="286.69" cy="288" r="288" gradientUnits="userSpaceOnUse"><stop offset="0" stop-color="#f1d6a5"/><stop offset="0" stop-color="#f1d5a4"/><stop offset="0.11" stop-color="#e7c38d"/><stop offset="0.24" stop-color="#dfb57b"/><stop offset="0.39" stop-color="#d9ab6e"/><stop offset="0.58" stop-color="#d6a566"/><stop offset="1" stop-color="#d5a364"/></radialGradient><radialGradient id="radial-gradient-2" cx="179.93" cy="277.84" r="59.1" xlink:href="#radial-gradient"/></defs><title>SWUVSA_Logo</title><polyline class="cls-1" points="123.97 212.98 123.97 452.26 359.73 452.25"/><path class="cls-2" d="M574.69,335.66s-18.78.83-39.19,15.8c-20.61,15.09-43.53,48.84-81.34,74.23,9.11,44.56,1.79,84.65,5.89,109.84,4.05,25,16.72,40.47,16.72,40.47l-25.33-25.32H209.68V476.56h11.38v62.73h219L237.71,337,119.52,218.74h0L35.37,134.59v219H98.12V365H24V123.2L-1.32,97.89s15.47,12.67,40.45,16.74A148.84,148.84,0,0,0,62.08,116c9.38,0,19.81-.34,31-.34,17.16,0,36.12.79,56,4.86,25.39-37.8,59.11-60.73,74.2-81.32C238.2,18.79,239,0,239,0s.67,18.79,15.47,39.33c14.93,20.7,48.5,43.89,73.58,81.9,18.93-3.75,37.05-4.57,53.54-4.57,12.54,0,24.15.48,34.5.48a139.23,139.23,0,0,0,21.5-1.29c24.22-3.82,37.94-15.92,38.79-16.67-.75.85-12.85,14.56-16.69,38.77-4,25.1,3.43,64.91-5.33,109.28,37.45,25,60.44,58.15,81,73S574.69,335.66,574.69,335.66Zm-45.93,6.61a100.1,100.1,0,0,1,10-6.46,97.07,97.07,0,0,1-10-6.38c-9.18-6.62-18.17-15.92-28.6-26.69-13.5-13.95-28.95-29.92-48.46-43.57a180.85,180.85,0,0,1-13.39,35.56c-9,17.9-19.19,31.76-30.11,42.35C419,347.55,429,361.23,438,378.84a180.51,180.51,0,0,1,13.37,34.94c19.84-13.94,35.44-30.32,49-44.6C510.71,358.33,519.64,349,528.76,342.27ZM448.48,136.18A101.17,101.17,0,0,1,451,124.55a100.72,100.72,0,0,1-11.61,2.56,150.41,150.41,0,0,1-23.29,1.41c-5,0-10.28-.11-15.83-.23-6-.11-12.21-.24-18.67-.24-14.54,0-30.45.62-47.13,3.56a181.8,181.8,0,0,1,15.2,34.11c6.17,18.86,8.69,35.75,8.46,50.84.64,0,1.27,0,1.9,0,14.59,0,30.86,2.57,48.93,8.48a181.22,181.22,0,0,1,35,15.74c4.13-23.62,3.68-46,3.27-65.48C447,160.28,446.71,147.34,448.48,136.18ZM372.43,455.55,448,531.13c-.94-9.68-.76-20.59-.55-32.87.32-19.68.7-42.27-3.64-66.1a180,180,0,0,1-34,15.47C399.33,451.16,383.75,453.87,372.43,455.55ZM428.1,289.62a170.38,170.38,0,0,0,13.47-37.05,170.5,170.5,0,0,0-36.12-16.74c-16.09-5.25-31.36-7.9-45.4-7.9l-2.63,0C353,267.12,329,293,303.75,309.59a142.64,142.64,0,0,1,28.77-3.06c22.25,0,45.69,5.91,67,23Q415.8,314,428.1,289.62Zm13.19,130.76A170.4,170.4,0,0,0,427.83,384q-12.19-24-28.29-39.34c-21.3,16.93-44.71,22.8-66.92,22.8a144.09,144.09,0,0,1-30-3.32c23.6,15.52,45.95,38.94,51.8,73.42h0v0l7.86,7.86c9.93-1.29,31.27-4.38,43.93-8.62A169.5,169.5,0,0,0,441.29,420.38ZM332.62,356.07c22,0,41.36-6.37,58-19-16.72-12.73-36.15-19.14-58.14-19.14-28.63,0-55.54,10.8-72,19.11C276.88,345.23,303.89,356.07,332.62,356.07ZM346.7,217.29q.54-22.29-7.84-48a169.16,169.16,0,0,0-16.16-35.18A171.31,171.31,0,0,0,286,147.48q-24.42,12.28-40,28.65c23.9,30.67,25.15,65.52,19,94.91C281.66,245.74,307.5,221.76,346.7,217.29Zm-12.78,46a91.09,91.09,0,0,0,11.85-34.41c-30.59,4.18-55.62,22.21-74.57,53.73A190,190,0,0,0,254,320.72C276.55,313.23,314.35,296.37,333.92,263.3ZM282.26,365.38,338,421.12c-8.1-19.81-23.7-36.75-46.63-50.62C288.33,368.66,285.27,367,282.26,365.38ZM280.85,137.3A182.11,182.11,0,0,1,316.17,124C302.38,104,286.12,88.3,272,74.59,261.18,64.16,251.88,55.15,245.26,46a100.88,100.88,0,0,1-6.37-10,100.64,100.64,0,0,1-6.46,10c-6.69,9.12-16.05,18-26.92,28.4-14.28,13.58-30.66,29.19-44.6,49a180.4,180.4,0,0,1,34.91,13.35c18.12,9.21,32.07,19.62,42.66,30.74C249.07,156.53,262.92,146.31,280.85,137.3Zm-43,176.32c10.68-21.33,25.29-59.77,15.79-96.77A90.86,90.86,0,0,0,238.4,185a91,91,0,0,0-15.7,32.19C213.14,253.93,227.31,292.14,237.88,313.62Zm-7-137.56q-15.54-16.63-40.26-29.21a168.28,168.28,0,0,0-36.35-13.45,169,169,0,0,0-16.44,35.07c-4.25,12.63-7.34,34-8.62,43.91l7.84,7.84h0c35.33,6,59,29.3,74.49,53.51C205.06,243.69,205.89,207.58,230.92,176.06ZM198.6,281.73l10.68,10.69c-1.57-3-3.28-6.09-5.12-9.13-13.87-23-30.82-38.54-50.63-46.64ZM127.07,164.84a180.29,180.29,0,0,1,15.47-34c-17.46-3.19-34.19-3.84-49.46-3.84-5.74,0-11.31.08-16.67.18-5,.08-9.75.16-14.33.16-5.44,0-12.07-.1-18.54-.73l75.61,75.63C120.82,191,123.54,175.36,127.07,164.84Z" transform="translate(1.32 0)"/><path class="cls-3" d="M441.57,252.57a170.38,170.38,0,0,1-13.47,37.05Q415.83,314,399.56,329.48c-21.35-17-44.79-23-67-23a142.64,142.64,0,0,0-28.77,3.06C329,293,353,267.12,357.42,228l2.63,0c14,0,29.31,2.65,45.4,7.9A170.5,170.5,0,0,1,441.57,252.57Z" transform="translate(1.32 0)"/><path class="cls-3" d="M427.83,384a170.4,170.4,0,0,1,13.46,36.38,169.5,169.5,0,0,1-35,16.45c-12.66,4.24-34,7.33-43.93,8.62l-7.86-7.86v0h0c-5.85-34.48-28.2-57.9-51.8-73.42a144.09,144.09,0,0,0,30,3.32c22.21,0,45.62-5.87,66.92-22.8Q415.61,359.95,427.83,384Z" transform="translate(1.32 0)"/><path class="cls-3" d="M338.86,169.25q8.4,25.71,7.84,48c-39.2,4.47-65,28.45-81.68,53.75,6.12-29.39,4.87-64.24-19-94.91q15.52-16.32,40-28.65a171.31,171.31,0,0,1,36.73-13.41A169.16,169.16,0,0,1,338.86,169.25Z" transform="translate(1.32 0)"/><polygon class="cls-4" points="120.84 218.74 239.04 336.95 120.83 218.74 120.84 218.74"/><path class="cls-3" d="M190.66,146.85q24.69,12.54,40.26,29.21c-25,31.52-25.86,67.63-19.31,97.68-15.47-24.21-39.16-47.52-74.49-53.51h0l-7.84-7.84c1.28-9.92,4.37-31.28,8.62-43.91a169,169,0,0,1,16.44-35.07A168.28,168.28,0,0,1,190.66,146.85Z" transform="translate(1.32 0)"/></svg>